# xmcd
#
# Track frame offsets:
#	150
#	20257
#	38392
#	53282
#	75215
#	94115
#	111415
#	132695
#	155797
#	176170
#	191220
#	208212
#	226632
#	243740
#	265825
#	287042
#
# Disc length: 4093 seconds
# Revision: 5
# Processed by: cddbd v1.5.2PL0 Copyright (c) Steve Scherf et al.
# Submitted via: dBpowerAMP V12.0
#
DISCID=d90ffb10
DTITLE=Johnnie Taylor - Rated X-Traordinaire - The Best of
DYEAR=1996
DGENRE=Soul
TTITLE0=Disco Lady
TTITLE1=Somebody's Gettin' it
TTITLE2=You're The Best Girl in The World
TTITLE3=Running Out of Lies
TTITLE4=Your Love is Rated X
TTITLE5=Stop Giving People Hard Luck Stories
TTITLE6=I'm Just a Shoulder to Cry on
TTITLE7=Love is Better in The A.M. (Parts 1 and 2)
TTITLE8=Disco 9000
TTITLE9=Right Now
TTITLE10=Give me my Baby
TTITLE11=Play Something Pretty
TTITLE12=(Ooh-Wee) She's Killing me
TTITLE13=Love Account
TTITLE14=Just a Happy Song
TTITLE15=God is Standing by
EXTD=
EXTT0=
EXTT1=
EXTT2=
EXTT3=
EXTT4=
EXTT5=
EXTT6=
EXTT7=
EXTT8=
EXTT9=
EXTT10=
EXTT11=
EXTT12=
EXTT13=
EXTT14=
EXTT15=
PLAYORDER=
